<?xml version="1.0" encoding="UTF-8"?>
<svg version="1.1" xmlns="http://www.w3.org/2000/svg" width="300" height="320">
<path d="M0 0 C3.22938181 2.62328083 4.27841254 5.91182691 5.6875 9.6875 C9.0459817 18.23369754 13.02456655 26.46093115 17.10098267 34.68179321 C17.82389873 36.1410469 18.54313593 37.60212902 19.25863647 39.06503296 C20.28032813 41.15036959 21.31571975 43.22830621 22.35546875 45.3046875 C22.66262817 45.93529587 22.9697876 46.56590424 23.28625488 47.21562195 C25.03959463 50.66811021 26.59215184 53.07042408 30 55 C37.98976271 54.37177269 47.05633991 48.43380165 53.734375 44.3125 C56 43 56 43 58 43 C56.78995557 49.92201475 55.55270642 56.83890098 54.29969788 63.75325012 C53.50913979 68.13014462 52.73555651 72.50960548 51.9765625 76.89208984 C51.04894334 82.24759278 50.09934598 87.59886844 49.13839722 92.94848633 C48.75629305 95.09755147 48.38164334 97.24795615 48.01467896 99.3996582 C47.48929901 102.47216114 46.93693072 105.53874921 46.37890625 108.60546875 C46.22885132 109.52023483 46.07879639 110.43500092 45.92419434 111.37748718 C44.06161611 121.28265757 38.05574231 128.18081031 31.75 135.75 C27.57730413 140.82391184 23.44498416 145.91924445 19.4375 151.125 C18.67308594 152.11757812 17.90867188 153.11015625 17.12109375 154.1328125 C14.9301338 157.02151001 14.9301338 157.02151001 12.91015625 160.3046875 C11 163 11 163 8 164 C7.31613857 165.32459646 6.65400765 166.66041192 6 168 C4.32380459 170.08254581 2.62885442 172.11054578 0.875 174.125 C-0.1143741 175.27640559 -1.10264417 176.42876071 -2.08984375 177.58203125 C-2.57952637 178.1538916 -3.06920898 178.72575195 -3.57373047 179.31494141 C-6.80740215 183.13534571 -9.90289984 187.06872387 -13 191 C-16.59107159 190.42250881 -18.23412373 189.12219676 -20.75 186.54296875 C-21.4409375 185.84236328 -22.131875 185.14175781 -22.84375 184.41992188 C-23.91109375 183.31487305 -23.91109375 183.31487305 -25 182.1875 C-26.06734375 181.09985352 -26.06734375 181.09985352 -27.15625 179.99023438 C-28.4878495 178.63254944 -29.81633671 177.27179968 -31.140625 175.90698242 C-36.90610718 169.70196736 -36.90610718 169.70196736 -44.875 167.75 C-48.53454535 167.83223697 -51.58643225 168.6345729 -55 170 C-51.98033392 175.70964157 -48.3525675 180.45380404 -44.1875 185.375 C-42.92751574 186.88338855 -41.66839064 188.39249522 -40.41015625 189.90234375 C-39.81477051 190.61503418 -39.21938477 191.32772461 -38.60595703 192.06201172 C-36.19358979 194.97313534 -33.87958873 197.95424801 -31.578125 200.953125 C-26.85599798 207.07786401 -21.98135395 213.08464218 -17 219 C-11.72311589 214.32415095 -8.20420052 208.56000195 -4.375 202.6875 C-2.94094182 200.51246832 -1.50604447 198.33798969 -0.0703125 196.1640625 C0.97527832 194.57706543 0.97527832 194.57706543 2.04199219 192.95800781 C8.59967559 183.05116341 15.43631243 173.33268102 22.30737305 163.64160156 C25.05422119 159.76629229 27.78200723 155.87914535 30.484375 151.97265625 C37.35696631 142.04934159 44.39939337 132.37635139 52 123 C53.04976907 121.69294111 54.0992365 120.38563993 55.1484375 119.078125 C60.99479502 111.81639781 66.93896373 104.65057586 73.04272461 97.60351562 C75.16976116 95.14715783 77.23959525 92.68687817 79.21484375 90.10546875 C79.80394531 89.41066406 80.39304688 88.71585937 81 88 C81.66 88 82.32 88 83 88 C83.33773437 89.09699219 83.67546875 90.19398437 84.0234375 91.32421875 C84.47385102 92.77867907 84.92437784 94.23310431 85.375 95.6875 C85.59671875 96.40873047 85.8184375 97.12996094 86.046875 97.87304688 C87.22052719 101.6528973 88.45903232 105.34920274 90 109 C95.17734252 109.18405161 99.77098921 108.55926036 104.76171875 107.28515625 C105.47479691 107.10995956 106.18787506 106.93476288 106.92256165 106.7542572 C109.17949535 106.19790356 111.43345147 105.63041693 113.6875 105.0625 C115.21140484 104.68480492 116.73549209 104.307845 118.25976562 103.93164062 C122.17544051 102.96330971 126.08812409 101.98356223 130 101 C131.33327884 100.66644875 132.66657966 100.3329851 134 100 C133.42367616 107.94720246 130.92715489 115.31584223 128.5625 122.875 C125.97333444 131.17864216 123.43875507 139.4029631 122 148 C125.64937023 150.30878525 129.31433729 152.0618734 133.3125 153.6875 C134.91544922 154.34298828 134.91544922 154.34298828 136.55078125 155.01171875 C137.35902344 155.33785156 138.16726563 155.66398438 139 156 C139 156.66 139 157.32 139 158 C137.3046875 159.5234375 137.3046875 159.5234375 134.875 161.375 C129.78609856 165.3402836 124.88238474 169.48325153 119.99951172 173.69873047 C118.88047658 174.66436762 117.76023092 175.62860405 116.63867188 176.59130859 C115.52628533 177.54757653 114.41834315 178.50903399 113.31445312 179.47509766 C109.22293792 183 109.22293792 183 107 183 C107 183.66 107 184.32 107 185 C105.3046875 186.5234375 105.3046875 186.5234375 102.875 188.375 C98.49858595 191.78575551 94.25738003 195.3089058 90.0625 198.9375 C84.88386643 203.41034047 79.64220331 207.77950859 74.3046875 212.0625 C69.83319753 215.34207063 69.83319753 215.34207063 67.7578125 220.11328125 C67.87898437 220.83902344 68.00015625 221.56476563 68.125 222.3125 C68.31642578 223.48232422 68.31642578 223.48232422 68.51171875 224.67578125 C69.18592305 227.88499372 69.90318439 230.90310887 71 234 C71.66 234.33 72.32 234.66 73 235 C73.90979128 238.2853574 74.40545619 241.64507419 75 245 C67.45193901 244.38636364 59.98055482 243.50228803 52.48828125 242.40625 C50.90867867 242.17887146 50.90867867 242.17887146 49.29716492 241.94689941 C45.96854954 241.46728029 42.64050727 240.98381893 39.3125 240.5 C35.97367815 240.01692409 32.63474042 239.53466389 29.29570007 239.05310059 C27.22866507 238.75474459 25.16177198 238.45540323 23.095047 238.15490723 C17.73590047 237.37879298 12.37579906 236.65117885 7 236 C7.10957031 237.03769531 7.21914062 238.07539063 7.33203125 239.14453125 C8.46451153 250.07113935 9.46844505 261.00830189 10.41952515 271.95199585 C10.55588575 273.5185124 10.6932665 275.08494051 10.83169556 276.65127563 C11.02894925 278.88835164 11.22206163 281.12574899 11.4140625 283.36328125 C11.5270166 284.66563721 11.6399707 285.96799316 11.75634766 287.30981445 C11.99117818 290.86639091 12 294.43567938 12 298 C6.39 298 0.78 298 -5 298 C-5 298.66 -5 299.32 -5 300 C-6.65 299.34 -8.3 298.68 -10 298 C-9.63549881 289.17655729 -9.05852589 280.38104836 -8.265625 271.5859375 C-8.19869949 270.84312531 -8.13177399 270.10031311 -8.06282043 269.33499146 C-7.72188845 265.57557842 -7.37305482 261.81703044 -7.01635742 258.05908203 C-6.88454911 256.63314299 -6.75279253 255.20719916 -6.62109375 253.78125 C-6.5017749 252.52376953 -6.38245605 251.26628906 -6.25952148 249.97070312 C-5.95457255 245.3049558 -5.94668322 240.67339672 -6 236 C-6.76341705 236.11275269 -7.52683411 236.22550537 -8.31338501 236.3416748 C-15.52180249 237.40553807 -22.73081187 238.46525401 -29.94051552 239.52036285 C-33.64671778 240.06289754 -37.35267373 240.60701056 -41.05810547 241.15478516 C-44.63667574 241.68374558 -48.21584169 242.20848867 -51.79545212 242.73036194 C-53.158348 242.92980605 -54.52102572 243.13074702 -55.88347244 243.33323669 C-57.79753774 243.61744314 -59.71247649 243.89574782 -61.62744141 244.17382812 C-62.71554108 244.33371216 -63.80364075 244.49359619 -64.92471313 244.6583252 C-67.97786878 244.99754115 -70.93088695 245.0609121 -74 245 C-73.75765625 244.39526855 -73.5153125 243.79053711 -73.265625 243.16748047 C-72.16646071 240.40741553 -71.08313741 237.64139149 -70 234.875 C-69.6184375 233.92367187 -69.236875 232.97234375 -68.84375 231.9921875 C-65.99763419 225.18864363 -65.99763419 225.18864363 -66 218 C-68.00097512 215.4142869 -68.00097512 215.4142869 -70.8125 213.1875 C-71.55910889 212.54639282 -71.55910889 212.54639282 -72.32080078 211.89233398 C-73.86526337 210.57528439 -75.42900416 209.28522469 -77 208 C-77.89847656 207.25492188 -78.79695313 206.50984375 -79.72265625 205.7421875 C-81.5187718 204.26614556 -83.32106597 202.7975956 -85.12890625 201.3359375 C-88.22028665 198.82077358 -91.27204095 196.26374937 -94.3125 193.6875 C-95.1178418 193.00578735 -95.1178418 193.00578735 -95.93945312 192.31030273 C-98.86963656 189.82441487 -101.7863337 187.32378501 -104.69140625 184.80859375 C-105.30653076 184.2772583 -105.92165527 183.74592285 -106.55541992 183.19848633 C-107.72848076 182.18407909 -108.89938736 181.1671727 -110.06762695 180.1472168 C-112.92159572 177.67993939 -115.80228184 175.40995391 -118.9140625 173.2734375 C-119.93242188 172.52320313 -120.95078125 171.77296875 -122 171 C-122 170.34 -122 169.68 -122 169 C-122.54140625 168.76539063 -123.0828125 168.53078125 -123.640625 168.2890625 C-126.65591544 166.6416356 -129.11184012 164.57346656 -131.75 162.375 C-133.22726563 161.14910156 -133.22726563 161.14910156 -134.734375 159.8984375 C-135.48203125 159.27195313 -136.2296875 158.64546875 -137 158 C-135.32028115 154.6405623 -131.39544216 154.26264815 -128 153.125 C-127.24976563 152.88136719 -126.49953125 152.63773438 -125.7265625 152.38671875 C-123.29291885 151.57707506 -123.29291885 151.57707506 -120 150 C-118.69947662 146.9620842 -119.05875685 144.9381386 -120.06396484 141.86157227 C-120.44964127 140.65495689 -120.44964127 140.65495689 -120.84310913 139.42396545 C-121.12949249 138.56347092 -121.41587585 137.70297638 -121.7109375 136.81640625 C-121.99852936 135.92388657 -122.28612122 135.03136688 -122.58242798 134.11180115 C-123.50360895 131.25878944 -124.43869727 128.41058102 -125.375 125.5625 C-126.30154154 122.71720929 -127.22515818 119.87100275 -128.14614868 117.02391052 C-128.71995236 115.25302744 -129.29742179 113.48332689 -129.8789978 111.71498108 C-131.14576278 107.83150883 -132.33811975 104.04282223 -133 100 C-131.23852197 100.3892649 -129.47708684 100.77872458 -127.71582031 101.16894531 C-126.13458965 101.51923045 -124.5532053 101.86882244 -122.97167969 102.21777344 C-118.34631555 103.24225494 -113.7285898 104.29320097 -109.1171875 105.37890625 C-107.65273193 105.72078979 -107.65273193 105.72078979 -106.15869141 106.06958008 C-104.25085263 106.51587407 -102.34421914 106.96735909 -100.43896484 107.42456055 C-95.86680476 108.48889261 -91.73220023 109.28205167 -87 109 C-86.35269196 106.43786446 -85.70710712 103.87531515 -85.0625 101.3125 C-84.88009766 100.59126953 -84.69769531 99.87003906 -84.50976562 99.12695312 C-83.58174093 95.43172752 -82.70201539 91.74654531 -82 88 C-81.01 88 -80.02 88 -79 88 C-77.6328125 89.44140625 -77.6328125 89.44140625 -76.125 91.5625 C-72.2988665 96.70994655 -68.14959807 101.5055647 -63.91625977 106.31713867 C-61.31994314 109.2802407 -58.76803981 112.24733446 -56.37109375 115.375 C-55.60925781 116.365 -54.84742187 117.355 -54.0625 118.375 C-53.41410156 119.24898438 -52.76570313 120.12296875 -52.09765625 121.0234375 C-49.03723019 123.90719092 -46.0780574 124 -42 124 C-42.60285839 116.18252411 -43.91978293 108.59381329 -45.43359375 100.90625 C-45.67159195 99.67894165 -45.90959015 98.4516333 -46.15480042 97.18713379 C-46.78371006 93.94851233 -47.41652051 90.71068653 -48.05126953 87.47320557 C-48.69190973 84.20025091 -49.32706209 80.92623655 -49.96289062 77.65234375 C-50.89916804 72.83741049 -51.83705618 68.02280221 -52.77905273 63.20898438 C-52.98432587 62.15735107 -53.189599 61.10571777 -53.40109253 60.0222168 C-53.79236434 58.0477745 -54.19295026 56.07514894 -54.60403442 54.10473633 C-54.78763519 53.22261475 -54.97123596 52.34049316 -55.16040039 51.43164062 C-55.40410118 50.28628845 -55.40410118 50.28628845 -55.65272522 49.11779785 C-56 47 -56 47 -56 43 C-50.96352816 44.85249539 -46.36920258 47.46056929 -41.703125 50.078125 C-37.58039091 52.33300814 -33.68382492 54.21022156 -29 55 C-24.31594748 52.97690543 -22.83557096 50.43974349 -20.765625 45.8828125 C-20.34614845 44.97451439 -20.34614845 44.97451439 -19.91819763 44.04786682 C-19.01410015 42.07991324 -18.13186705 40.10300198 -17.25 38.125 C-16.63235106 36.76879255 -16.01361041 35.41308178 -15.39379883 34.05786133 C-11.31923172 25.11007112 -7.37204588 16.10372994 -3.57714844 7.03369141 C-1.09037462 1.09037462 -1.09037462 1.09037462 0 0 Z " fill="#B41F34" transform="translate(147,10)"/>
<path d="M0 0 C0.66 0 1.32 0 2 0 C1.40300869 3.33135891 0.27987719 5.21275667 -1.9375 7.75 C-2.46214844 8.36359375 -2.98679688 8.9771875 -3.52734375 9.609375 C-5 11 -5 11 -7 11 C-7.226875 11.53753906 -7.45375 12.07507813 -7.6875 12.62890625 C-9.40894662 15.73878154 -11.67184476 18.27629421 -14 20.9375 C-19.15354931 26.92719592 -24.00615373 33.09473017 -28.77490234 39.39257812 C-29.98009426 40.97388214 -31.20281717 42.54177531 -32.42578125 44.109375 C-37.8733959 51.09483302 -43.04755145 58.22688652 -48.06591797 65.52832031 C-48.54947754 66.22538086 -49.03303711 66.92244141 -49.53125 67.640625 C-49.95986328 68.26485352 -50.38847656 68.88908203 -50.83007812 69.53222656 C-52 71 -52 71 -54 72 C-51.23072225 56.19665498 -31.43028344 37.88681087 -21.46044922 25.77636719 C-19.42177578 23.29669686 -17.40009769 20.80326187 -15.375 18.3125 C-13.91865643 16.54002991 -12.46018248 14.76930889 -11 13 C-10.29883057 12.14535156 -10.29883057 12.14535156 -9.58349609 11.2734375 C-8.08273745 9.44786244 -6.57360104 7.62951888 -5.0625 5.8125 C-4.58925293 5.2347583 -4.11600586 4.6570166 -3.62841797 4.06176758 C-2.46312303 2.66964042 -1.23639183 1.3293854 0 0 Z " fill="#BB1722" transform="translate(228,98)"/>
<path d="M0 0 C0.66 0 1.32 0 2 0 C0.44646618 4.70524323 -2.16508914 8.16974755 -5.125 12.0625 C-9.11855948 17.41244805 -12.9449569 22.82094918 -16.6171875 28.3984375 C-19.99529344 33.52246171 -23.43457654 38.60520386 -26.875 43.6875 C-27.54241211 44.68144775 -28.20982422 45.67539551 -28.89746094 46.69946289 C-29.5268457 47.62750732 -30.15623047 48.55555176 -30.8046875 49.51171875 C-31.37171387 50.35178467 -31.93874023 51.19185059 -32.52294922 52.05737305 C-34 54 -34 54 -36 55 C-35.43754178 51.03953952 -34.28718774 48.53205454 -32.0078125 45.26171875 C-31.08174194 43.91944214 -31.08174194 43.91944214 -30.13696289 42.55004883 C-29.47301514 41.60540771 -28.80906738 40.6607666 -28.125 39.6875 C-27.44751709 38.70998779 -26.77003418 37.73247559 -26.07202148 36.7253418 C-24.69847109 34.74406304 -23.32178252 32.76495602 -21.94189453 30.78808594 C-19.74738109 27.63730099 -17.58031494 24.46861669 -15.41699219 21.29638672 C-2.76420675 2.76420675 -2.76420675 2.76420675 0 0 Z " fill="#B5141E" transform="translate(171,172)"/>
<path d="M0 0 C0.66 0 1.32 0 2 0 C2.4532666 0.94206299 2.9065332 1.88412598 3.37353516 2.85473633 C5.08161187 6.40283203 6.79345408 9.94910059 8.50634766 13.49487305 C9.24237668 15.01977997 9.97742995 16.54515831 10.71142578 18.07104492 C16.89951436 33.69549118 16.89951436 33.69549118 27 46 C28.9896995 46.39013716 30.99019869 46.73202649 33 47 C33 47.33 33 47.66 33 48 C31.6081797 48.16374356 30.21064132 48.27920565 28.8125 48.375 C27.64654297 48.47941406 27.64654297 48.47941406 26.45703125 48.5859375 C22.6374423 47.67506573 21.03200253 45.1530682 19 42 C16.89606051 38.25609101 15.00047568 34.42502954 13.125 30.5625 C12.60196289 29.49878174 12.07892578 28.43506348 11.54003906 27.33911133 C10.0166424 24.23084512 8.50629659 21.11658221 7 18 C6.59297852 17.1637207 6.18595703 16.32744141 5.76660156 15.46582031 C0 3.5904008 0 3.5904008 0 0 Z " fill="#BD1824" transform="translate(150,19)"/>
<path d="M0 0 C1.69141656 0.08963062 3.37959602 0.24577676 5.0625 0.4375 C6.44115234 0.59025391 6.44115234 0.59025391 7.84765625 0.74609375 C8.55792969 0.82988281 9.26820313 0.91367188 10 1 C10 1.33 10 1.66 10 2 C6.7 2 3.4 2 0 2 C0.309375 2.86625 0.61875 3.7325 0.9375 4.625 C4.2606662 16.45641442 3.11686103 29.82048341 3 42 C1.21947647 38.8929095 0.65636299 36.37326482 0.3671875 32.81640625 C0.28315674 31.8116626 0.19912598 30.80691895 0.11254883 29.77172852 C0.03415771 28.71268311 -0.0442334 27.6536377 -0.125 26.5625 C-0.20919189 25.48605225 -0.29338379 24.40960449 -0.38012695 23.30053711 C-1.53887379 7.72965638 -1.53887379 7.72965638 -1 1 C-0.67 0.67 -0.34 0.34 0 0 Z " fill="#B5121F" transform="translate(153,243)"/>
<path d="M0 0 C0.33 0.33 0.66 0.66 1 1 C0.93473835 3.59860029 0.80744837 6.1592331 0.625 8.75 C0.58117187 9.46671875 0.53734375 10.1834375 0.4921875 10.921875 C0.24294239 14.68824554 -0.14552552 18.32141495 -1 22 C-1.33 22 -1.66 22 -2 22 C-2.797837 15.30386804 -3.12910853 8.74233419 -3 2 C-4.48693359 2.24556641 -4.48693359 2.24556641 -6.00390625 2.49609375 C-9.99354579 3.06604226 -13.90621941 3.09817505 -17.9375 3.0625 C-18.62134766 3.05798828 -19.30519531 3.05347656 -20.00976562 3.04882812 C-21.67321604 3.0371956 -23.3366205 3.01926694 -25 3 C-21.26821798 0.70277315 -17.32711837 0.31399113 -13.0625 -0.1875 C-12.35931641 -0.28224609 -11.65613281 -0.37699219 -10.93164062 -0.47460938 C-7.06476274 -0.94936195 -3.75416459 -1.11841336 0 0 Z " fill="#B9131F" transform="translate(144,244)"/>
<path d="M0 0 C4.14051282 1.52545209 6.17944621 4.49554899 8.6875 7.9375 C9.56620372 9.11310529 10.44644312 10.28756412 11.328125 11.4609375 C11.77091797 12.05229492 12.21371094 12.64365234 12.66992188 13.25292969 C15.37428738 16.80513959 18.24174219 20.2227923 21.08984375 23.66015625 C22.03537109 24.81837891 22.03537109 24.81837891 23 26 C23.59941406 26.69996094 24.19882813 27.39992187 24.81640625 28.12109375 C25.20699219 28.74113281 25.59757812 29.36117187 26 30 C25.67 30.99 25.34 31.98 25 33 C17.42601415 24.1807747 10.10320759 15.20297335 3 6 C2.401875 5.24847656 1.80375 4.49695313 1.1875 3.72265625 C0 2 0 2 0 0 Z " fill="#B61622" transform="translate(102,197)"/>
<path d="M0 0 C0.33 0 0.66 0 1 0 C1.68351583 13.7715782 -2.11366797 19.63261263 -11 30 C-12.01274656 31.32367752 -13.01821761 32.65319596 -14 34 C-14.99 33.67 -15.98 33.34 -17 33 C-16.31292969 32.19175781 -15.62585938 31.38351563 -14.91796875 30.55078125 C-14.00762725 29.4715104 -13.09748135 28.39207453 -12.1875 27.3125 C-11.73568359 26.78205078 -11.28386719 26.25160156 -10.81835938 25.70507812 C-5.9015376 19.85513689 -3.49812636 15.02686147 -1.8125 7.6875 C-1.63525391 6.94693359 -1.45800781 6.20636719 -1.27539062 5.44335938 C-0.84269047 3.63069658 -0.42029284 1.81557973 0 0 Z " fill="#BA1622" transform="translate(191,114)"/>
<path d="M0 0 C6.42721752 0.95218037 10.11426464 6.18057138 14.09375 10.83203125 C19.40980172 17.1972511 19.40980172 17.1972511 26 22 C25.67 22.66 25.34 23.32 25 24 C20.34432499 21.55468285 17.05782243 18.29114048 13.4375 14.5625 C12.87353516 13.98951172 12.30957031 13.41652344 11.72851562 12.82617188 C10.63753603 11.71732828 9.54842114 10.60664609 8.46142578 9.49389648 C6.08841001 7.06815584 3.69272653 4.6679863 1.25 2.3125 C0 1 0 1 0 0 Z " fill="#B51722" transform="translate(107,176)"/>
<path d="M0 0 C6.04691919 2.44095821 9.8461476 8.18321585 14 13 C14.81339844 13.9384375 15.62679687 14.876875 16.46484375 15.84375 C20.69418415 20.89814626 20.69418415 20.89814626 22 23 C21.67 23.99 21.34 24.98 21 26 C15.93440795 20.49791702 11.09217558 14.93731674 6.57421875 8.9765625 C5.15873201 7.19930124 3.70072861 5.63189548 2.0625 4.0625 C1.381875 3.381875 0.70125 2.70125 0 2 C0 1.34 0 0.68 0 0 Z " fill="#BC1925" transform="translate(69,103)"/>
<path d="M0 0 C0.66 0 1.32 0 2 0 C1.41111199 3.00443074 0.56711901 4.87537722 -1.36328125 7.2421875 C-1.83830078 7.83386719 -2.31332031 8.42554688 -2.80273438 9.03515625 C-3.30095703 9.64230469 -3.79917969 10.24945313 -4.3125 10.875 C-7.08243806 14.28697668 -9.76229314 17.63594445 -12.16796875 21.3203125 C-14 24 -14 24 -17 26 C-17.66 26 -18.32 26 -19 26 C-17.45334458 22.49153429 -15.34376905 19.85787315 -12.875 16.9375 C-8.86360227 12.12900709 -5.19239705 7.16679575 -1.62890625 2.01953125 C-1.09136719 1.35308594 -0.55382812 0.68664062 0 0 Z " fill="#B7101B" transform="translate(172,149)"/>
<path d="M0 0 C4.00984848 1.67808744 7.06488021 4.43627083 10.3125 7.25 C10.88701904 7.74218018 11.46153809 8.23436035 12.0534668 8.74145508 C13.7052962 10.15754226 15.35281277 11.57851912 17 13 C18.43718263 14.22953773 19.87459932 15.45880208 21.3125 16.6875 C22.199375 17.450625 23.08625 18.21375 24 19 C23.01 19.33 22.02 19.66 21 20 C18.59018777 18.19787955 16.40824401 16.38878462 14.1875 14.375 C12.97295141 13.29914586 11.75811026 12.22362191 10.54296875 11.1484375 C9.95306152 10.61831055 9.3631543 10.08818359 8.75537109 9.54199219 C7.07929708 8.06965791 5.35834987 6.67823925 3.61328125 5.2890625 C1 3 1 3 0 0 Z " fill="#BA1724" transform="translate(51,200)"/>
<path d="M0 0 C0.33 0 0.66 0 1 0 C1.35745094 6.99015175 0.93313366 13.62971189 -0.3125 20.5 C-0.43020752 21.18191406 -0.54791504 21.86382812 -0.66918945 22.56640625 C-1.41525064 26.40792922 -2.35012319 29.09033134 -5 32 C-5.39828504 25.13954018 -3.90717035 18.7522639 -2.5 12.0625 C-2.26152344 10.90169922 -2.02304688 9.74089844 -1.77734375 8.54492188 C-1.19100025 5.69529249 -0.59838855 2.84712 0 0 Z " fill="#BD121E" transform="translate(197,81)"/>
<path d="M0 0 C0.33 0 0.66 0 1 0 C1.76299944 8.14648632 2.21521251 15.88611956 1 24 C1.66 24.33 2.32 24.66 3 25 C1.68 25.33 0.36 25.66 -1 26 C1.64 26 4.28 26 7 26 C5.68 26.33 4.36 26.66 3 27 C3 27.66 3 28.32 3 29 C0.525 28.01 0.525 28.01 -2 27 C-1.03644647 7.99544419 -1.03644647 7.99544419 0 0 Z " fill="#B63038" transform="translate(139,281)"/>
<path d="M0 0 C2 1 2 1 3.125 3.6875 C4.00860823 7.0325883 4.38172954 9.56443411 4 13 C1.99894071 15.94892948 -0.66459927 16.94243392 -4 18 C-5.32 18 -6.64 18 -8 18 C-8 17.34 -8 16.68 -8 16 C-5.03 14.68 -2.06 13.36 1 12 C0.67 8.04 0.34 4.08 0 0 Z " fill="#BC1A26" transform="translate(27,147)"/>
<path d="M0 0 C0.33 0 0.66 0 1 0 C1.08948558 4.47427924 0.85743651 8.60563789 0 13 C0.99 13.61875 1.98 14.2375 3 14.875 C3.99 15.57625 4.98 16.2775 6 17 C6 17.66 6 18.32 6 19 C-0.75 17.375 -0.75 17.375 -3 14 C-2.67120886 8.98593515 -1.7720443 4.72545147 0 0 Z " fill="#BC1B28" transform="translate(269,145)"/>
<path d="M0 0 C-0.51405169 4.96916636 -1.23384882 9.29026351 -3 14 C-3.33 14 -3.66 14 -4 14 C-4.144375 13.21625 -4.28875 12.4325 -4.4375 11.625 C-4.87798925 9.03578982 -4.87798925 9.03578982 -6 7 C-5.5625 4.875 -5.5625 4.875 -5 3 C-5.99 2.67 -6.98 2.34 -8 2 C-2.25 0 -2.25 0 0 0 Z " fill="#BB2833" transform="translate(281,110)"/>
<path d="M0 0 C4.73020952 -0.10064276 9.20230262 0.2049494 13.88671875 0.87890625 C16.14085043 1.00807091 17.85079742 0.65494887 20 0 C19.34 1.32 18.68 2.64 18 4 C11.28299653 4.31985731 6.24273068 3.4793824 0 1 C0 0.67 0 0.34 0 0 Z " fill="#C11623" transform="translate(42,118)"/>
<path d="M0 0 C0.66 0 1.32 0 2 0 C0.38833189 3.65658033 -1.86423078 6.53033096 -4.375 9.625 C-5.14585937 10.58664063 -5.91671875 11.54828125 -6.7109375 12.5390625 C-8.78822465 14.77232343 -10.19730492 15.91219597 -13 17 C-11.26502365 12.82779497 -8.39532584 9.65406526 -5.5 6.25 C-5.00113281 5.64800781 -4.50226563 5.04601562 -3.98828125 4.42578125 C-2.70581757 2.90951723 -1.35739729 1.44956624 0 0 Z " fill="#B5131F" transform="translate(147,181)"/>
<path d="M0 0 C2 1 4 2 6 3 C6 3.66 6 4.32 6 5 C6.58265625 5.26554688 7.1653125 5.53109375 7.765625 5.8046875 C10.06174228 7.03302996 11.80356018 8.40314939 13.75 10.125 C14.67039062 10.93324219 14.67039062 10.93324219 15.609375 11.7578125 C16.06828125 12.16773438 16.5271875 12.57765625 17 13 C16.01 13.33 15.02 13.66 14 14 C11.6404566 12.32395154 9.5371686 10.65251953 7.375 8.75 C6.776875 8.24597656 6.17875 7.74195313 5.5625 7.22265625 C1.13555721 3.40667163 1.13555721 3.40667163 0 0 Z " fill="#BE1721" transform="translate(26,179)"/>
<path d="M0 0 C0.33 0.99 0.66 1.98 1 3 C1.66 3 2.32 3 3 3 C4.66115258 4.90309664 6.18075244 6.79341169 7.6875 8.8125 C8.33041992 9.63331055 8.33041992 9.63331055 8.98632812 10.47070312 C10.19921875 12.08203125 10.19921875 12.08203125 12 15 C11.67 15.99 11.34 16.98 11 18 C9.33884829 16.13685706 7.69691052 14.26137285 6.0625 12.375 C5.59392578 11.85292969 5.12535156 11.33085937 4.64257812 10.79296875 C1.61175809 7.26064611 0.32792112 4.64671202 0 0 Z " fill="#B71320" transform="translate(89,178)"/>
<path d="M0 0 C-0.33 0.66 -0.66 1.32 -1 2 C-3.765625 2.8515625 -3.765625 2.8515625 -7.25 3.625 C-8.38953125 3.88539062 -9.5290625 4.14578125 -10.703125 4.4140625 C-13.56912304 4.92342234 -16.10235596 5.11982739 -19 5 C-18.01 4.67 -17.02 4.34 -16 4 C-16 3.34 -16 2.68 -16 2 C-10.42932723 0.40837921 -5.78898419 -0.20674944 0 0 Z " fill="#BE1722" transform="translate(276,113)"/>
<path d="M0 0 C0.33 0.99 0.66 1.98 1 3 C1.67417969 2.83628906 2.34835938 2.67257812 3.04296875 2.50390625 C6.51367906 1.9124642 9.79322124 1.90460954 13.3125 1.9375 C14.56675781 1.94652344 15.82101563 1.95554687 17.11328125 1.96484375 C18.06589844 1.97644531 19.01851562 1.98804688 20 2 C20 2.66 20 3.32 20 4 C13.12631267 4.74464946 6.83079148 5.18225237 0 4 C0 2.68 0 1.36 0 0 Z " fill="#BD0A14" transform="translate(138,303)"/>
<path d="M0 0 C1.65 0 3.3 0 5 0 C5.12375 0.61875 5.2475 1.2375 5.375 1.875 C5.87197356 4.19120832 5.87197356 4.19120832 8 6 C10.06874034 6.6425235 10.06874034 6.6425235 12 7 C12 7.99 12 8.98 12 10 C8.644238 9.38024215 6.47736472 8.15537152 3.75 6.125 C3.04359375 5.61195313 2.3371875 5.09890625 1.609375 4.5703125 C0.81273437 3.79300781 0.81273437 3.79300781 0 3 C0 2.01 0 1.02 0 0 Z " fill="#BD202B" transform="translate(12,167)"/>
<path d="M0 0 C1.485 0.99 1.485 0.99 3 2 C3.38411275 4.609621 3.60293197 7.0058074 3.6875 9.625 C3.72166016 10.33140625 3.75582031 11.0378125 3.79101562 11.765625 C3.87351308 13.50985688 3.93843335 15.25490395 4 17 C3.34 17 2.68 17 2 17 C0.4943096 11.19233704 -0.21824777 6.0018137 0 0 Z " fill="#C11822" transform="translate(92,55)"/>
<path d="M0 0 C1.98 0.66 3.96 1.32 6 2 C6 2.66 6 3.32 6 4 C5.01 4.495 5.01 4.495 4 5 C4.33 7.31 4.66 9.62 5 12 C4.34 12 3.68 12 3 12 C2.49440092 10.56445975 1.9957251 9.1264798 1.5 7.6875 C1.2215625 6.88699219 0.943125 6.08648437 0.65625 5.26171875 C0 3 0 3 0 0 Z " fill="#BE252E" transform="translate(14,110)"/>
<path d="M0 0 C-4.49087169 2.99391446 -6.70517963 3.11177109 -12.125 3.0625 C-13.40632813 3.05347656 -14.68765625 3.04445312 -16.0078125 3.03515625 C-17.48894531 3.01775391 -17.48894531 3.01775391 -19 3 C-19 2.67 -19 2.34 -19 2 C-12.53205867 0.48766299 -6.64409958 -0.21432579 0 0 Z " fill="#B90D1A" transform="translate(118,247)"/>
<path d="M0 0 C2.57005181 2.57005181 2.57173288 4.25139178 3.125 7.8125 C3.29257813 8.85019531 3.46015625 9.88789062 3.6328125 10.95703125 C3.96131681 13.67942337 4.07084083 16.26250781 4 19 C0.55147237 12.59559154 -0.28673875 7.16846871 0 0 Z " fill="#BC111D" transform="translate(96,73)"/>
<path d="M0 0 C1 3 1 3 -0.21484375 5.91796875 C-0.78332031 6.99691406 -1.35179687 8.07585938 -1.9375 9.1875 C-2.50339844 10.27417969 -3.06929687 11.36085938 -3.65234375 12.48046875 C-4.09707031 13.31191406 -4.54179687 14.14335938 -5 15 C-6.04537095 12.29840881 -6.08156212 11.21584123 -5.0390625 8.45703125 C-4.57242188 7.58433594 -4.10578125 6.71164063 -3.625 5.8125 C-3.16351563 4.93207031 -2.70203125 4.05164063 -2.2265625 3.14453125 C-1 1 -1 1 0 0 Z " fill="#BE1721" transform="translate(144,19)"/>
<path d="M0 0 C0.99 0.66 1.98 1.32 3 2 C2.67 3.32 2.34 4.64 2 6 C1.2575 6.0825 0.515 6.165 -0.25 6.25 C-3.52361097 7.14280299 -4.71965318 8.56238789 -7 11 C-7.66 11 -8.32 11 -9 11 C-7.65396518 6.96189555 -5.34663277 5.52704924 -2 3 C-1.34 3 -0.68 3 0 3 C0 2.01 0 1.02 0 0 Z " fill="#B72739" transform="translate(279,166)"/>
<path d="M0 0 C2 3 2 3 3 8 C-0.63 7.67 -4.26 7.34 -8 7 C-8 6.67 -8 6.34 -8 6 C-6.8553125 5.9071875 -6.8553125 5.9071875 -5.6875 5.8125 C-2.76948191 5.23064738 -2.76948191 5.23064738 -1.1875 2.4375 C-0.795625 1.633125 -0.40375 0.82875 0 0 Z " fill="#B92B37" transform="translate(219,247)"/>
<path d="M0 0 C-1.36508501 3.11728368 -2.86919698 5.08663738 -5.4375 7.3125 C-6.03433594 7.84488281 -6.63117188 8.37726563 -7.24609375 8.92578125 C-7.82488281 9.28027344 -8.40367187 9.63476562 -9 10 C-9.99 9.67 -10.98 9.34 -12 9 C-10.38050958 7.49405319 -8.75424026 5.99539332 -7.125 4.5 C-6.22007812 3.6646875 -5.31515625 2.829375 -4.3828125 1.96875 C-2 0 -2 0 0 0 Z " fill="#BB1521" transform="translate(267,181)"/>
<path d="M0 0 C0.33 0 0.66 0 1 0 C1.24809955 2.6244748 1.4741699 5.24767145 1.6875 7.875 C1.79674805 8.99455078 1.79674805 8.99455078 1.90820312 10.13671875 C2.07421875 12.3046875 2.07421875 12.3046875 2 16 C1.01 16.66 0.02 17.32 -1 18 C-0.505 9.09 -0.505 9.09 0 0 Z " fill="#BA2835" transform="translate(141,258)"/>
<path d="M0 0 C3.84788041 1.56765498 6.41775169 3.75374498 9 7 C8.8125 10.3125 8.8125 10.3125 8 13 C7.67 13 7.34 13 7 13 C7 11.02 7 9.04 7 7 C6.401875 6.773125 5.80375 6.54625 5.1875 6.3125 C2.43648112 4.66188867 1.47515363 2.8027919 0 0 Z " fill="#BC111E" transform="translate(76,221)"/>
<path d="M0 0 C2.97 0.33 5.94 0.66 9 1 C9.33 1.99 9.66 2.98 10 4 C9.01 4.66 8.02 5.32 7 6 C6.01 5.67 5.02 5.34 4 5 C4 4.34 4 3.68 4 3 C2.0399719 1.36323743 2.0399719 1.36323743 0 0 Z " fill="#BA1E28" transform="translate(276,164)"/>
<path d="M0 0 C0.33 0 0.66 0 1 0 C1.13794954 7.06608191 0.74805717 13.97360585 0 21 C-0.33 21 -0.66 21 -1 21 C-1.94351599 13.46462229 -2.07726572 7.33152608 0 0 Z " fill="#B80611" transform="translate(141,271)"/>
<path d="M0 0 C0.33 0 0.66 0 1 0 C1.17673419 4.5067218 1.13551182 7.96625544 -1 12 C-1.99 12.495 -1.99 12.495 -3 13 C-2.52060632 8.28596212 -2.03165952 4.33420699 0 0 Z " fill="#BE111E" transform="translate(276,120)"/>
<path d="M0 0 C0.33 0.99 0.66 1.98 1 3 C-1.97 6.3 -4.94 9.6 -8 13 C-8.66 12.67 -9.32 12.34 -10 12 C-6.7 8.04 -3.4 4.08 0 0 Z " fill="#B5263D" transform="translate(219,112)"/>
<path d="M0 0 C-1.59241408 4.29951803 -4.35540725 6.39671947 -8 9 C-8.99 8.67 -9.98 8.34 -11 8 C-9.54712339 6.66072279 -8.08752741 5.32873153 -6.625 4 C-5.81289063 3.2575 -5.00078125 2.515 -4.1640625 1.75 C-2 0 -2 0 0 0 Z " fill="#BD1620" transform="translate(279,171)"/>
<path d="M0 0 C4.51617599 -0.07654536 8.59085217 -0.10228696 13 1 C13 1.66 13 2.32 13 3 C8.17639811 3.19294408 4.50353262 2.75747614 0 1 C0 0.67 0 0.34 0 0 Z " fill="#BF1823" transform="translate(28,115)"/>
<path d="M0 0 C0.99 0 1.98 0 3 0 C3.66 1.32 4.32 2.64 5 4 C4 5 4 5 0.9375 5.0625 C-0.5165625 5.0315625 -0.5165625 5.0315625 -2 5 C-1.34 3.35 -0.68 1.7 0 0 Z " fill="#B9242E" transform="translate(75,250)"/>
<path d="M0 0 C0.33 0.66 0.66 1.32 1 2 C0.22265625 3.9453125 0.22265625 3.9453125 -0.9375 6.125 C-1.31777344 6.84945312 -1.69804687 7.57390625 -2.08984375 8.3203125 C-2.39019531 8.87460937 -2.69054687 9.42890625 -3 10 C-4.11665191 6.28574649 -3.79401325 4.49360475 -2 1 C-1.34 0.67 -0.68 0.34 0 0 Z " fill="#C01622" transform="translate(134,41)"/>
<path d="M0 0 C-1.29299694 2.88437779 -2.65941363 4.87219421 -5 7 C-5.99 6.67 -6.98 6.34 -8 6 C-7.0479279 4.99403703 -6.08812654 3.99538437 -5.125 3 C-4.59132812 2.443125 -4.05765625 1.88625 -3.5078125 1.3125 C-2 0 -2 0 0 0 Z " fill="#BD121C" transform="translate(248,197)"/>
<path d="M0 0 C-3.83325617 2.70582788 -6.32538149 3.32613618 -11 3 C-4.23255814 -1.51162791 -4.23255814 -1.51162791 0 0 Z " fill="#BA222D" transform="translate(190,63)"/>
<path d="M0 0 C0.66 0.66 1.32 1.32 2 2 C0.02 4.31 -1.96 6.62 -4 9 C-4.66 8.67 -5.32 8.34 -6 8 C-4.02 5.36 -2.04 2.72 0 0 Z " fill="#B0243B" transform="translate(202,133)"/>
<path d="M0 0 C0.33 0.99 0.66 1.98 1 3 C1.99 3.33 2.98 3.66 4 4 C4 4.66 4 5.32 4 6 C6.31 6 8.62 6 11 6 C11 6.33 11 6.66 11 7 C3.58358663 7.36474164 3.58358663 7.36474164 1 5.75 C0 4 0 4 0 0 Z " fill="#BF0E1B" transform="translate(233,115)"/>
<path d="M0 0 C1 3 1 3 -0.4375 6.1875 C-1.2109375 7.5796875 -1.2109375 7.5796875 -2 9 C-2.66 8.01 -3.32 7.02 -4 6 C-2.68 4.02 -1.36 2.04 0 0 Z " fill="#BE131D" transform="translate(82,235)"/>
<path d="M0 0 C3.465 1.485 3.465 1.485 7 3 C7 3.99 7 4.98 7 6 C4.03824877 5.38722388 2.61941217 4.74627478 0 3 C0 2.01 0 1.02 0 0 Z " fill="#BF1621" transform="translate(17,171)"/>
<path d="M0 0 C0.33 0.99 0.66 1.98 1 3 C-0.9375 5.6875 -0.9375 5.6875 -3 8 C-3.99 7.67 -4.98 7.34 -6 7 C-4.02 4.69 -2.04 2.38 0 0 Z " fill="#B70F1B" transform="translate(180,140)"/>
<path d="M0 0 C0.99 0 1.98 0 3 0 C2.25 5.75 2.25 5.75 0 8 C0 5.36 0 2.72 0 0 Z " fill="#C0212C" transform="translate(65,98)"/>
<path d="M0 0 C0.66 0 1.32 0 2 0 C1.45773019 3.79588866 -0.20127563 5.47211993 -3 8 C-2.45276317 4.62537285 -1.9451 2.91765 0 0 Z " fill="#B61320" transform="translate(172,149)"/>
<path d="M0 0 C0.33 0 0.66 0 1 0 C1.36923077 6.52307692 1.36923077 6.52307692 -0.5 8.9375 C-0.995 9.288125 -1.49 9.63875 -2 10 C-1.125 2.25 -1.125 2.25 0 0 Z " fill="#BD101C" transform="translate(269,145)"/>
<path d="M0 0 C0.33 0 0.66 0 1 0 C0.67 2.97 0.34 5.94 0 9 C-0.66 9 -1.32 9 -2 9 C-1.125 2.25 -1.125 2.25 0 0 Z " fill="#BB121C" transform="translate(272,135)"/>
<path d="M0 0 C2.88437779 1.29299694 4.87219421 2.65941363 7 5 C6.01 5.495 6.01 5.495 5 6 C3.2925002 4.71937515 1.62626404 3.38232443 0 2 C0 1.34 0 0.68 0 0 Z " fill="#BE0E1A" transform="translate(93,131)"/>
<path d="M0 0 C0.33 0 0.66 0 1 0 C0.25 6.625 0.25 6.625 -2 10 C-2.93423645 6.98968256 -3.04449911 6.13349732 -2 3 C-1.34 3 -0.68 3 0 3 C0 2.01 0 1.02 0 0 Z " fill="#C30D19" transform="translate(64,107)"/>
<path d="M0 0 C3 1 3 1 3 1 Z " fill="#E91515" transform="translate(178,250)"/>
<path d="M0 0 C2 1 2 1 2 1 Z " fill="#942A6A" transform="translate(193,252)"/>
<path d="M0 0 C2 1 2 1 2 1 Z " fill="#BF003F" transform="translate(110,251)"/>
<path d="" fill="#7F7F7F" transform="translate(0,0)"/>
<path d="" fill="#FF0000" transform="translate(0,0)"/>
<path d="M0 0 C2 1 2 1 2 1 Z " fill="#BF003F" transform="translate(282,171)"/>
<path d="M0 0 C2 1 2 1 2 1 Z " fill="#BF003F" transform="translate(238,118)"/>
<path d="" fill="#FF0000" transform="translate(0,0)"/>
<path d="M0 0 C2 1 2 1 2 1 Z " fill="#D42A2A" transform="translate(63,97)"/>
<path d="" fill="#FF0000" transform="translate(0,0)"/>
<path d="M0 0 C2 1 2 1 2 1 Z " fill="#AA5555" transform="translate(182,62)"/>
<path d="" fill="#AA5555" transform="translate(0,0)"/>
<path d="" fill="#AA5555" transform="translate(0,0)"/>
<path d="" fill="#FF0000" transform="translate(0,0)"/>
<path d="" fill="#7F7F7F" transform="translate(0,0)"/>
<path d="" fill="#FF0000" transform="translate(0,0)"/>
<path d="" fill="#FF0000" transform="translate(0,0)"/>
<path d="" fill="#FF0000" transform="translate(0,0)"/>
<path d="" fill="#FF0000" transform="translate(0,0)"/>
<path d="" fill="#FF0000" transform="translate(0,0)"/>
<path d="" fill="#AA5555" transform="translate(0,0)"/>
<path d="" fill="#7F007F" transform="translate(0,0)"/>
<path d="" fill="#7F007F" transform="translate(0,0)"/>
<path d="" fill="#FF0000" transform="translate(0,0)"/>
<path d="" fill="#7F007F" transform="translate(0,0)"/>
<path d="" fill="#AA5555" transform="translate(0,0)"/>
<path d="" fill="#7F007F" transform="translate(0,0)"/>
<path d="" fill="#FF0000" transform="translate(0,0)"/>
<path d="" fill="#7F007F" transform="translate(0,0)"/>
<path d="" fill="#FF0000" transform="translate(0,0)"/>
<path d="" fill="#FF0000" transform="translate(0,0)"/>
<path d="" fill="#FF0000" transform="translate(0,0)"/>
<path d="" fill="#FF0000" transform="translate(0,0)"/>
<path d="" fill="#FF0000" transform="translate(0,0)"/>
<path d="" fill="#FF0000" transform="translate(0,0)"/>
<path d="" fill="#FF0000" transform="translate(0,0)"/>
<path d="" fill="#FF0000" transform="translate(0,0)"/>
<path d="" fill="#FF0000" transform="translate(0,0)"/>
<path d="" fill="#FF0000" transform="translate(0,0)"/>
<path d="" fill="#7F0000" transform="translate(0,0)"/>
<path d="" fill="#FF0000" transform="translate(0,0)"/>
<path d="" fill="#7F7F7F" transform="translate(0,0)"/>
<path d="" fill="#FF0000" transform="translate(0,0)"/>
<path d="" fill="#7F7F7F" transform="translate(0,0)"/>
<path d="" fill="#FF0000" transform="translate(0,0)"/>
<path d="" fill="#7F7F7F" transform="translate(0,0)"/>
<path d="" fill="#7F007F" transform="translate(0,0)"/>
<path d="" fill="#AA5555" transform="translate(0,0)"/>
<path d="" fill="#FF0000" transform="translate(0,0)"/>
<path d="" fill="#FF0000" transform="translate(0,0)"/>
<path d="" fill="#FF0000" transform="translate(0,0)"/>
<path d="" fill="#FF0000" transform="translate(0,0)"/>
<path d="" fill="#FF0000" transform="translate(0,0)"/>
<path d="" fill="#FF0000" transform="translate(0,0)"/>
<path d="" fill="#FF0000" transform="translate(0,0)"/>
<path d="" fill="#FF0000" transform="translate(0,0)"/>
<path d="" fill="#7F007F" transform="translate(0,0)"/>
<path d="" fill="#FF0000" transform="translate(0,0)"/>
<path d="" fill="#FF0000" transform="translate(0,0)"/>
<path d="" fill="#7F7F7F" transform="translate(0,0)"/>
<path d="" fill="#FF0000" transform="translate(0,0)"/>
<path d="" fill="#FF0000" transform="translate(0,0)"/>
<path d="" fill="#FF0000" transform="translate(0,0)"/>
<path d="" fill="#7F7F7F" transform="translate(0,0)"/>
<path d="" fill="#FF0000" transform="translate(0,0)"/>
<path d="" fill="#FF0000" transform="translate(0,0)"/>
<path d="" fill="#993366" transform="translate(0,0)"/>
<path d="" fill="#FF0000" transform="translate(0,0)"/>
<path d="" fill="#FF0000" transform="translate(0,0)"/>
<path d="" fill="#FF0000" transform="translate(0,0)"/>
</svg>
